<svg width="211" height="211" viewBox="0 0 211 211" fill="none" xmlns="http://www.w3.org/2000/svg">
<path d="M207.535 193.047H197.273V65.8108C197.273 62.3906 195.458 59.228 192.505 57.5057L140.418 27.1168C137.448 25.383 133.777 25.3714 130.796 27.086C127.815 28.801 125.976 31.9804 125.976 35.4219V193.047H115.052V10.4284C115.052 7.19713 113.428 4.18115 110.732 2.40193C108.036 0.623783 104.627 0.319862 101.66 1.59471L20.2612 36.5508C16.7321 38.0664 14.4439 41.5414 14.4439 45.3848V193.047H4.21923C2.33943 193.047 0.815674 194.572 0.815674 196.453V207.532C0.815674 209.413 2.33943 210.937 4.21923 210.937H207.535C209.414 210.937 210.938 209.413 210.938 207.532V196.453C210.938 194.572 209.414 193.047 207.535 193.047ZM152.509 61.5369C152.509 59.6553 154.033 58.1303 155.913 58.1303H166.724C168.604 58.1303 170.127 59.6553 170.127 61.5369V72.3576C170.127 74.2382 168.604 75.7632 166.724 75.7632H155.913C154.033 75.7632 152.509 74.2382 152.509 72.3576V61.5369ZM152.509 88.7832C152.509 86.9016 154.033 85.3768 155.913 85.3768H166.724C168.604 85.3768 170.127 86.9016 170.127 88.7832V99.6041C170.127 101.485 168.604 103.009 166.724 103.009H155.913C154.033 103.009 152.509 101.485 152.509 99.6041V88.7832ZM152.509 116.029C152.509 114.148 154.033 112.623 155.913 112.623H166.724C168.604 112.623 170.127 114.148 170.127 116.029V126.849C170.127 128.731 168.604 130.256 166.724 130.256H155.913C154.033 130.256 152.509 128.731 152.509 126.849V116.029ZM152.509 143.275C152.509 141.393 154.033 139.868 155.913 139.868H166.724C168.604 139.868 170.127 141.393 170.127 143.275V154.096C170.127 155.976 168.604 157.502 166.724 157.502H155.913C154.033 157.502 152.509 155.976 152.509 154.096V143.275ZM152.509 170.521C152.509 168.64 154.033 167.115 155.913 167.115H166.724C168.604 167.115 170.127 168.64 170.127 170.521V181.342C170.127 183.223 168.604 184.748 166.724 184.748H155.913C154.033 184.748 152.509 183.223 152.509 181.342V170.521ZM72.1912 34.2905C72.1912 32.4099 73.7147 30.8841 75.5947 30.8841H86.4068C88.2869 30.8841 89.8104 32.4099 89.8104 34.2905V45.1114C89.8104 46.993 88.2869 48.5178 86.4068 48.5178H75.5947C73.7147 48.5178 72.1912 46.993 72.1912 45.1114V34.2905ZM72.1912 61.5369C72.1912 59.6553 73.7147 58.1303 75.5947 58.1303H86.4068C88.2869 58.1303 89.8104 59.6553 89.8104 61.5369V72.3576C89.8104 74.2382 88.2869 75.7632 86.4068 75.7632H75.5947C73.7147 75.7632 72.1912 74.2382 72.1912 72.3576V61.5369ZM72.1912 88.7832C72.1912 86.9016 73.7147 85.3768 75.5947 85.3768H86.4068C88.2869 85.3768 89.8104 86.9016 89.8104 88.7832V99.6041C89.8104 101.485 88.2869 103.009 86.4068 103.009H75.5947C73.7147 103.009 72.1912 101.485 72.1912 99.6041V88.7832ZM72.1912 116.029C72.1912 114.148 73.7147 112.623 75.5947 112.623H86.4068C88.2869 112.623 89.8104 114.148 89.8104 116.029V126.849C89.8104 128.731 88.2869 130.256 86.4068 130.256H75.5947C73.7147 130.256 72.1912 128.731 72.1912 126.849V116.029ZM72.1912 143.275C72.1912 141.393 73.7147 139.868 75.5947 139.868H86.4068C88.2869 139.868 89.8104 141.393 89.8104 143.275V154.096C89.8104 155.976 88.2869 157.502 86.4068 157.502H75.5947C73.7147 157.502 72.1912 155.976 72.1912 154.096V143.275ZM72.1912 170.521C72.1912 168.64 73.7147 167.115 75.5947 167.115H86.4068C88.2869 167.115 89.8104 168.64 89.8104 170.521V181.342C89.8104 183.223 88.2869 184.748 86.4068 184.748H75.5947C73.7147 184.748 72.1912 183.223 72.1912 181.342V170.521ZM39.4157 61.5369C39.4157 59.6553 40.9395 58.1303 42.8193 58.1303H53.6313C55.5103 58.1303 57.0349 59.6553 57.0349 61.5369V72.3576C57.0349 74.2382 55.5103 75.7632 53.6313 75.7632H42.8193C40.9395 75.7632 39.4157 74.2382 39.4157 72.3576V61.5369ZM39.4157 88.7832C39.4157 86.9016 40.9395 85.3768 42.8193 85.3768H53.6313C55.5103 85.3768 57.0349 86.9016 57.0349 88.7832V99.6041C57.0349 101.485 55.5103 103.009 53.6313 103.009H42.8193C40.9395 103.009 39.4157 101.485 39.4157 99.6041V88.7832ZM39.4157 116.029C39.4157 114.148 40.9395 112.623 42.8193 112.623H53.6313C55.5103 112.623 57.0349 114.148 57.0349 116.029V126.849C57.0349 128.731 55.5103 130.256 53.6313 130.256H42.8193C40.9395 130.256 39.4157 128.731 39.4157 126.849V116.029ZM39.4157 143.275C39.4157 141.393 40.9395 139.868 42.8193 139.868H53.6313C55.5103 139.868 57.0349 141.393 57.0349 143.275V154.096C57.0349 155.976 55.5103 157.502 53.6313 157.502H42.8193C40.9395 157.502 39.4157 155.976 39.4157 154.096V143.275ZM39.4157 170.521C39.4157 168.64 40.9395 167.115 42.8193 167.115H53.6313C55.5103 167.115 57.0349 168.64 57.0349 170.521V181.342C57.0349 183.223 55.5103 184.748 53.6313 184.748H42.8193C40.9395 184.748 39.4157 183.223 39.4157 181.342V170.521Z" fill="#FEC5A5"/>
</svg>
