<svg width="211" height="211" viewBox="0 0 211 211" fill="none" xmlns="http://www.w3.org/2000/svg">
<path d="M206.719 192.232H196.458V64.9952C196.458 61.575 194.642 58.4123 191.69 56.6901L139.603 26.3012C136.632 24.5674 132.962 24.5558 129.98 26.2704C126.999 27.9853 125.16 31.1648 125.16 34.6062V192.232H114.236V9.61281C114.236 6.38152 112.612 3.36554 109.916 1.58631C107.22 -0.191829 103.811 -0.495751 100.844 0.779099L19.4455 35.7352C15.9164 37.2508 13.6282 40.7257 13.6282 44.5692V192.232H3.40355C1.52376 192.232 0 193.757 0 195.637V206.717C0 208.597 1.52376 210.122 3.40355 210.122H206.719C208.598 210.122 210.122 208.597 210.122 206.717V195.637C210.122 193.757 208.598 192.232 206.719 192.232ZM151.694 60.7213C151.694 58.8397 153.217 57.3147 155.097 57.3147H165.908C167.788 57.3147 169.312 58.8397 169.312 60.7213V71.542C169.312 73.4226 167.788 74.9476 165.908 74.9476H155.097C153.217 74.9476 151.694 73.4226 151.694 71.542V60.7213ZM151.694 87.9676C151.694 86.086 153.217 84.5612 155.097 84.5612H165.908C167.788 84.5612 169.312 86.086 169.312 87.9676V98.7885C169.312 100.669 167.788 102.194 165.908 102.194H155.097C153.217 102.194 151.694 100.669 151.694 98.7885V87.9676ZM151.694 115.213C151.694 113.332 153.217 111.807 155.097 111.807H165.908C167.788 111.807 169.312 113.332 169.312 115.213V126.034C169.312 127.915 167.788 129.44 165.908 129.44H155.097C153.217 129.44 151.694 127.915 151.694 126.034V115.213ZM151.694 142.459C151.694 140.578 153.217 139.053 155.097 139.053H165.908C167.788 139.053 169.312 140.578 169.312 142.459V153.28C169.312 155.161 167.788 156.687 165.908 156.687H155.097C153.217 156.687 151.694 155.161 151.694 153.28V142.459ZM151.694 169.706C151.694 167.824 153.217 166.299 155.097 166.299H165.908C167.788 166.299 169.312 167.824 169.312 169.706V180.526C169.312 182.407 167.788 183.932 165.908 183.932H155.097C153.217 183.932 151.694 182.407 151.694 180.526V169.706ZM71.3755 33.4748C71.3755 31.5943 72.899 30.0685 74.7791 30.0685H85.5911C87.4712 30.0685 88.9947 31.5943 88.9947 33.4748V44.2958C88.9947 46.1774 87.4712 47.7022 85.5911 47.7022H74.7791C72.899 47.7022 71.3755 46.1774 71.3755 44.2958V33.4748ZM71.3755 60.7213C71.3755 58.8397 72.899 57.3147 74.7791 57.3147H85.5911C87.4712 57.3147 88.9947 58.8397 88.9947 60.7213V71.542C88.9947 73.4226 87.4712 74.9476 85.5911 74.9476H74.7791C72.899 74.9476 71.3755 73.4226 71.3755 71.542V60.7213ZM71.3755 87.9676C71.3755 86.086 72.899 84.5612 74.7791 84.5612H85.5911C87.4712 84.5612 88.9947 86.086 88.9947 87.9676V98.7885C88.9947 100.669 87.4712 102.194 85.5911 102.194H74.7791C72.899 102.194 71.3755 100.669 71.3755 98.7885V87.9676ZM71.3755 115.213C71.3755 113.332 72.899 111.807 74.7791 111.807H85.5911C87.4712 111.807 88.9947 113.332 88.9947 115.213V126.034C88.9947 127.915 87.4712 129.44 85.5911 129.44H74.7791C72.899 129.44 71.3755 127.915 71.3755 126.034V115.213ZM71.3755 142.459C71.3755 140.578 72.899 139.053 74.7791 139.053H85.5911C87.4712 139.053 88.9947 140.578 88.9947 142.459V153.28C88.9947 155.161 87.4712 156.687 85.5911 156.687H74.7791C72.899 156.687 71.3755 155.161 71.3755 153.28V142.459ZM71.3755 169.706C71.3755 167.824 72.899 166.299 74.7791 166.299H85.5911C87.4712 166.299 88.9947 167.824 88.9947 169.706V180.526C88.9947 182.407 87.4712 183.932 85.5911 183.932H74.7791C72.899 183.932 71.3755 182.407 71.3755 180.526V169.706ZM38.6 60.7213C38.6 58.8397 40.1238 57.3147 42.0036 57.3147H52.8156C54.6946 57.3147 56.2192 58.8397 56.2192 60.7213V71.542C56.2192 73.4226 54.6946 74.9476 52.8156 74.9476H42.0036C40.1238 74.9476 38.6 73.4226 38.6 71.542V60.7213ZM38.6 87.9676C38.6 86.086 40.1238 84.5612 42.0036 84.5612H52.8156C54.6946 84.5612 56.2192 86.086 56.2192 87.9676V98.7885C56.2192 100.669 54.6946 102.194 52.8156 102.194H42.0036C40.1238 102.194 38.6 100.669 38.6 98.7885V87.9676ZM38.6 115.213C38.6 113.332 40.1238 111.807 42.0036 111.807H52.8156C54.6946 111.807 56.2192 113.332 56.2192 115.213V126.034C56.2192 127.915 54.6946 129.44 52.8156 129.44H42.0036C40.1238 129.44 38.6 127.915 38.6 126.034V115.213ZM38.6 142.459C38.6 140.578 40.1238 139.053 42.0036 139.053H52.8156C54.6946 139.053 56.2192 140.578 56.2192 142.459V153.28C56.2192 155.161 54.6946 156.687 52.8156 156.687H42.0036C40.1238 156.687 38.6 155.161 38.6 153.28V142.459ZM38.6 169.706C38.6 167.824 40.1238 166.299 42.0036 166.299H52.8156C54.6946 166.299 56.2192 167.824 56.2192 169.706V180.526C56.2192 182.407 54.6946 183.932 52.8156 183.932H42.0036C40.1238 183.932 38.6 182.407 38.6 180.526V169.706Z" fill="#FFCEAA"/>
</svg>
